<?xml version="1.0" encoding="UTF-8" standalone="no"?>
<!-- Created with Inkscape (http://www.inkscape.org/) -->

<svg
   version="1.1"
   id="svg1791"
   width="2119.6304"
   height="2241.064"
   viewBox="0 0 2119.6303 2241.0639"
   sodipodi:docname="k1.svg"
   inkscape:version="1.2.2 (732a01da63, 2022-12-09, custom)"
   xmlns:inkscape="http://www.inkscape.org/namespaces/inkscape"
   xmlns:sodipodi="http://sodipodi.sourceforge.net/DTD/sodipodi-0.dtd"
   xmlns="http://www.w3.org/2000/svg"
   xmlns:svg="http://www.w3.org/2000/svg">
  <defs
     id="defs1795" />
  <sodipodi:namedview
     id="namedview1793"
     pagecolor="#ffffff"
     bordercolor="#000000"
     borderopacity="0.25"
     inkscape:showpageshadow="2"
     inkscape:pageopacity="0.0"
     inkscape:pagecheckerboard="0"
     inkscape:deskcolor="#d1d1d1"
     showgrid="false"
     inkscape:zoom="0.30322265"
     inkscape:cx="1022.3511"
     inkscape:cy="1223.5234"
     inkscape:window-width="1920"
     inkscape:window-height="1031"
     inkscape:window-x="0"
     inkscape:window-y="25"
     inkscape:window-maximized="1"
     inkscape:current-layer="layer1" />
  <g
     inkscape:groupmode="layer"
     id="layer1"
     inkscape:label="Layer 1"
     transform="translate(-128.01296,-142.71663)">
    <path
       style="fill:#000000;stroke-width:1.33333"
       d="m 622.66668,2382.5955 c -13.93371,-1.4525 -34.77196,-6.6517 -35.63088,-8.8901 -2.45698,-6.4027 29.81382,-50.9807 52.46362,-72.4719 8.82994,-8.3781 27.11516,-22.2295 36.35644,-27.5405 28.19202,-16.2022 52.6112,-40.15 62.22748,-61.0263 11.31252,-24.5588 12.22254,-54.2005 5.1781,-168.6667 -3.98527,-64.757 -7.46063,-89.3257 -15.9898,-113.0378 -9.23875,-25.6847 -12.60263,-43.8656 -15.2266,-82.2955 -0.80115,-11.7333 -2.05307,-30.0333 -2.78204,-40.6667 -2.82128,-41.1529 -7.35168,-63.0392 -25.26794,-122.0689 -9.1072,-30.006 -11.07274,-35.2644 -13.1815,-35.2644 -0.47296,0 -7.37432,3.8752 -15.33635,8.6115 -29.49657,17.5464 -47.04741,22.595 -78.81054,22.6709 -32.10368,0.076 -41.28776,-2.3648 -95.33333,-25.3423 -38.06792,-16.1845 -62.2684,-27.0621 -92.41259,-41.5373 -25.3445,-12.1705 -27.37374,-12.9087 -37.02568,-13.4673 -5.93052,-0.3434 -12.20456,0.067 -14.96537,0.9777 -15.869,5.2372 -23.57282,31.2617 -23.5885,79.6852 -0.0144,44.4881 7.03071,79.3631 19.35686,95.8208 3.0956,4.1332 14.62352,12.0381 35.30195,24.2073 15.52848,9.1386 17.68497,12.4911 17.11033,26.6002 -0.51028,12.5288 -2.48884,15.6845 -13.27728,21.1768 -7.75356,3.9472 -8.78737,6.4301 -4.47352,10.744 10.42285,10.4228 27.1536,10.6576 67.80647,0.9516 14.77633,-3.5279 21.72772,-4.5779 27.26576,-4.1187 6.91545,0.5735 7.86505,1.0861 13.63562,7.3619 16.8077,18.2792 32.81328,65.6128 37.28255,110.2564 1.43771,14.3613 0.93435,23.0034 -1.6232,27.8682 -1.09232,2.0779 -2.25411,2.3235 -7.36415,1.5572 -16.22837,-2.4336 -51.11156,-17.3988 -72.91701,-31.2821 -22.46715,-14.3045 -29.74111,-16.6123 -67.44557,-21.3976 -29.94803,-3.8011 -54.85425,-7.7081 -65.30015,-10.244 -16.69716,-4.0532 -28.41748,-14.4185 -37.41336,-33.088 -11.51548,-23.8983 -16.453,-49.2027 -27.97039,-143.3457 -5.41909,-44.2958 -11.75205,-81.4467 -19.34503,-113.4835 -9.60754,-40.5369 -9.92457,-42.3629 -9.92822,-57.1832 -0.005,-22.5887 4.91061,-37.7796 19.15404,-59.1856 23.60061,-35.4685 47.72804,-42.3843 112.13644,-32.1417 47.09485,7.4892 90.7648,10.5697 136.92349,9.6588 27.57464,-0.5443 33.98507,-1.0647 42.96847,-3.4887 5.80724,-1.5669 10.74773,-3.038 10.97887,-3.2692 0.23113,-0.2311 -5.52822,-14.274 -12.79852,-31.2065 -45.79463,-106.6548 -50.60935,-157.6281 -29.98776,-317.4789 2.58589,-20.0449 4.82473,-42.5103 4.9752,-49.9232 l 0.27358,-13.478 -4.66666,-1.0204 c -2.56667,-0.5611 -19.66667,-1.6462 -38,-2.4112 -18.33334,-0.7649 -41.9337,-2.0699 -52.44523,-2.8999 -21.82945,-1.7237 -23.48147,-1.2119 -28.79661,8.9201 -2.50004,4.7657 -2.75816,7.5681 -2.75816,29.9451 v 24.6874 l -4.38234,8.9091 c -5.37194,10.9209 -13.23252,18.148 -26.87632,24.7104 -8.30019,3.9923 -11.54189,4.8333 -18.9302,4.9114 -7.64415,0.081 -9.40096,-0.3613 -12.32436,-3.1018 -5.98889,-5.6141 -6.82515,-10.5805 -6.75836,-40.1372 0.0655,-28.9631 1.5762,-39.5028 7.25897,-50.642 3.6489,-7.1524 3.44371,-10.4667 -0.7466,-12.0599 -12.43114,-4.7263 -22.56666,13.2126 -30.53008,54.0352 -5.62337,28.827 -12.44024,38.6487 -30.55906,44.0294 -8.88139,2.6375 -14.09155,2.4838 -23.09742,-0.6815 -10.69326,-3.7584 -17.35481,-8.5573 -19.71293,-14.2011 -2.24367,-5.3699 -13.57803,-19.0293 -34.14299,-41.1468 -28.50893,-30.6612 -33.16294,-38.0053 -33.18529,-52.3666 -0.0183,-11.7363 3.71844,-21.1655 13.75828,-34.7177 17.16935,-23.1759 22.84512,-33.8978 31.70159,-59.88665 20.11561,-59.02813 31.74054,-130.3316 26.50636,-162.58117 -0.73366,-4.52034 -3.23866,-12.62034 -5.56664,-18 -3.72079,-8.5982 -4.2316,-11.23255 -4.22346,-21.7812 0.0207,-26.75482 14.78494,-56.19396 68.73222,-137.04842 l 26.53209,-39.76545 -4.24939,-11.59307 c -8.06384,-21.99955 -16.11816,-39.67593 -29.42702,-64.58192 -13.34962,-24.98224 -17.04822,-33.51777 -15.287,-35.27897 2.99557,-2.99559 67.9925,-4.23206 88.87825,-1.69079 25.60201,3.11512 45.37258,10.68604 66.61662,25.51009 19.42434,13.55427 21.16076,14.4059 29.34841,14.39399 4.03333,-0.005 10.03333,-0.67491 13.33333,-1.48676 8.67782,-2.13491 31.02072,-1.7168 44.78362,0.83804 6.53568,1.21323 17.88305,4.63041 25.21638,7.59375 l 13.33334,5.38786 24.66666,1.04199 c 21.48583,0.90761 26.02706,1.49959 35.21619,4.59064 11.54512,3.88355 15.35183,6.1768 25.62792,15.43889 7.10902,6.40752 10.44747,7.93959 30.46786,13.98211 20.29436,6.1252 35.27472,14.60209 51.01838,28.86963 4.74687,4.3018 10.21444,8.16922 12.15016,8.59428 7.47836,1.64213 21.14896,6.46125 30.7821,10.85121 28.54182,13.00693 51.3887,36.00767 72.5311,73.01956 5.02684,8.8 10.07727,17.05507 11.22318,18.3446 1.14592,1.28952 6.33589,4.4118 11.53329,6.93839 25.54415,12.41765 43.61284,36.46148 52.14116,69.38368 3.91587,15.11656 8.88328,24.91423 21.52726,42.46001 17.41266,24.16323 29.52669,53.60403 35.06084,85.20851 2.99264,17.09049 6.0532,26.33148 8.7208,26.33148 0.94088,0 2.09045,-1.51311 2.5546,-3.36245 1.52978,-6.09511 3.39358,-48.78931 3.4329,-78.63755 0.10094,-76.61127 5.73876,-98.75637 28.00336,-109.99551 13.70267,-6.91708 29.92873,-9.91745 79.34223,-14.67122 40.3849,-3.88519 56.3687,-6.24708 61.142,-9.03486 3.7348,-2.18122 4.1949,-3.25822 5.6034,-13.11604 3.9148,-27.39921 31.2261,-97.25889 49.5426,-126.72524 10.7471,-17.28905 26.9351,-38.49788 44.1651,-57.86303 8.7729,-9.86009 15.7847,-18.1026 15.5818,-18.31668 -0.2029,-0.21408 -4.1937,0.23139 -8.8686,0.98994 -46.2882,7.51077 -72.1846,-13.80708 -76.0457,-62.6007 -2.0677,-26.12936 -2.3717,-27.81848 -5.5398,-30.78261 -2.6604,-2.48901 -2.9141,-4.02491 -2.9141,-17.63858 0,-14.16136 -0.2182,-15.34749 -4.3334,-23.55896 -8.3848,-16.73124 -5.2711,-25.8812 22.0122,-64.68652 7.2675,-10.33665 8.7985,-13.54761 6.992,-14.66408 -1.7054,-1.05401 -14.0842,14.30906 -27.662,34.33075 -6.3408,9.35 -11.9178,17 -12.3933,17 -1.6816,0 -15.5711,-5.06951 -19.6054,-7.15573 -6.0009,-3.10318 -8.3435,-5.91308 -8.3435,-10.00798 0,-7.82954 39.6807,-68.15224 69.5698,-105.76014 37.259,-46.88107 92.6588,-76.83624 154.711,-83.65367 16.8649,-1.85287 49.7162,-1.82392 58.461,0.0515 16.1515,3.46386 27.8775,25.34821 32.6831,60.99661 2.9524,21.90085 2.978,86.92056 0.04,103.06084 -3.8103,20.93647 -24.3375,73.47197 -32.8436,84.05704 -3.1754,3.95137 -3.9552,6.20831 -3.9552,11.44647 0,10.71808 3.9734,21.06768 26.9893,70.29839 11.8237,25.29057 15.6727,36.00388 15.6904,43.67197 0.015,6.60176 3.7459,15.13719 12.5529,28.72025 18.7128,28.8602 28.9678,67.05051 36.0556,134.27444 1.0826,10.26667 3.812,38.16667 6.0658,62.00001 4.442,46.97576 10.8178,104.35604 14.0745,126.66666 6.7349,46.13766 23.1432,131.84207 31.5257,164.66667 l 4.4264,17.3333 16.6431,-0.1955 c 9.1536,-0.1076 27.1429,-1.44 39.9763,-2.9611 60.3509,-7.1529 72.0226,-8.2835 100.8834,-9.7726 57.6986,-2.9769 106.3547,2.5069 147.9063,16.6698 22.4876,7.665 36.7732,14.6191 73.5364,35.7969 l 13.6596,7.8687 16.7003,-14.6002 c 21.7649,-19.0281 39.723,-30.8135 69.9806,-45.9263 44.071,-22.0123 62.882,-26.6737 108,-26.7629 43.0067,-0.085 60.545,3.9415 83.5719,19.1871 20.3477,13.4719 35.6657,30.643 46.4289,52.0459 10.6838,21.2447 12.3388,31.9676 10.118,65.5507 -2.3472,35.4953 -5.0762,47.3443 -24.9565,108.3578 -23.7077,72.7598 -32.5543,117.4094 -36.4713,184.075 -3.834,65.2518 1.0137,253.2466 8.1588,316.3983 1.9804,17.504 0.6321,19.4893 -5.9136,8.7076 -6.8696,-11.3153 -40.8574,-80.3617 -48.7087,-98.9523 -7.4539,-17.6492 -19.4268,-52.9156 -28.3439,-83.4869 -3.2085,-11 -6.0512,-18.8857 -6.3172,-17.524 -0.6996,3.582 2.2695,68.2587 3.8604,84.0944 4.6534,46.3187 13.3856,85.8951 35.4202,160.5325 6.9986,23.7067 12.3132,43.5067 11.81,44 -1.3516,1.3254 -14.6707,-13.975 -19.4995,-22.4001 -2.3003,-4.0135 -11.4767,-18.1135 -20.3919,-31.3333 -18.3752,-27.2476 -36.015,-55.1375 -49.942,-78.9619 -5.2274,-8.9424 -10.1809,-16.6771 -11.0078,-17.1881 -2.411,-1.4902 -0.6482,8.9332 12.7381,75.3134 6.8175,33.807 11.9425,61.4671 11.3892,61.4671 -2.4212,0 -35.4795,-54.2699 -53.6051,-88 -8.0561,-14.9917 -21.8861,-46.1133 -29.3294,-66 -22.337,-59.6776 -30.9542,-116.8096 -27.6439,-183.2764 3.1449,-63.1479 13.7641,-102.1263 53.5655,-196.6168 17.7585,-42.1597 23.091,-57.7165 25.174,-73.4401 1.8824,-14.2112 0.8502,-43.7991 -1.9835,-56.8587 -4.3835,-20.201 -15.1751,-32.5173 -28.05,-32.0128 -11.0155,0.4316 -44.6877,11.1359 -55.0707,17.5067 -4.083,2.5054 -4.3326,3.1027 -4.322,10.3452 0,4.2274 1.7908,18.8551 3.9656,32.5059 9.2302,57.9356 8.4688,100.3008 -2.7646,153.847 -8.4804,40.4227 -20.5523,73.6532 -43.8796,120.7883 -18.9804,38.3516 -21.7015,46.577 -21.7928,65.8784 -0.076,16.1432 1.2866,23.9669 10.6044,60.869 11.3132,44.8051 25.31,83.5339 43.1724,119.4572 14.9385,30.0431 26.1256,46.2472 45.0148,65.2023 22.3522,22.4303 30.4028,35.738 37.38,61.7895 2.9761,11.112 3.4105,15.488 3.5092,35.3486 0.1093,21.8947 -0.013,22.9165 -3.418,30.0001 -1.9418,4.0333 -6.3263,10.9333 -9.7432,15.3333 -27.3903,35.2707 -67.5916,164.8556 -88.6631,285.7971 -9.1981,52.793 -10.9179,58.2041 -19.9665,62.8204 -6.9464,3.5437 -16.3171,5.5384 -21.3191,4.538 -5.1236,-1.0247 -10.4497,-5.8762 -11.3903,-10.3752 -0.3962,-1.8958 -1.0297,-4.9378 -1.4074,-6.76 -1.6139,-7.783 -14.4775,-4.2312 -24.6518,6.8065 -11.3549,12.3188 -15.2974,25.6612 -20.0362,67.8081 -1.4823,13.1826 -3.1363,24.4096 -3.6758,24.9491 -0.5393,0.5393 -13.8736,2.8916 -29.6317,5.2271 -59.0204,8.7473 -117.6008,4.4718 -122.7059,-8.9555 -3.7868,-9.9601 6.8487,-32.6568 26.7982,-57.1889 17.5522,-21.584 39.9221,-40.4851 68.6446,-58 17.7235,-10.8078 27.9148,-21.2936 43.4299,-44.6854 15.1487,-22.8392 34.0419,-54.3865 41.5113,-69.3146 18.8091,-37.5906 31.4402,-82.4132 44.9006,-159.3334 10.9504,-62.5772 10.6908,-73.3743 -2.421,-100.6667 -13.8049,-28.7354 -24.145,-37.8216 -76.4348,-67.1653 -34.4924,-19.3564 -51.411,-30.1171 -64.1056,-40.7729 -13.133,-11.0239 -14.9285,-11.2228 -13.789,-1.5272 1.1017,9.374 6.3076,25.1241 20.476,61.9488 l 11.5421,29.9989 -5.6521,16.7589 c -16.1043,47.7502 -24.8987,53.3327 -91.5119,58.0918 -58.9201,4.2093 -99.4911,10.3908 -148.9609,22.6959 -26.0726,6.4853 -32.043,8.975 -39.5691,16.5012 -8.3112,8.3112 -12.0229,17.5354 -13.3903,33.2772 -2.0137,23.1832 -7.8748,31.0538 -23.789,31.9457 -11.2879,0.6327 -15.213,-1.9228 -17.4874,-11.3851 -2.1834,-9.0845 -5.584,-16.3678 -7.6417,-16.3678 -2.8505,0 -5.6251,5.4458 -8.4985,16.6808 -4.0014,15.645 -4.679,29.6908 -2.1862,45.3192 2.0531,12.8708 7.7526,64.9825 7.1515,65.3854 -6.2157,4.1663 -29.0672,14.9116 -39.1175,18.3939 -23.7726,8.2371 -61.4901,15.4772 -80.9005,15.5296 -8.1389,0.021 -28.6452,-3.2597 -30.2451,-4.8401 -1.6245,-1.605 15.1435,-42.3228 35.3342,-85.8022 19.2677,-41.4917 27.4153,-64.1122 34.718,-96.3896 8.6317,-38.152 14.8624,-51.542 31.785,-68.3078 20.3454,-20.1567 42.2266,-28.2047 106.7975,-39.2805 64.3777,-11.0425 102.6789,-24.3482 122.2527,-42.47 10.6217,-9.834 14.6764,-17.9832 15.462,-31.0761 1.047,-17.4508 -0.035,-18.9968 -45.4178,-64.9292 -41.7286,-42.2335 -57.8296,-60.1592 -77.235,-85.9889 -17.3287,-23.0655 -28.7704,-36.619 -31.6972,-37.5479 -8.2782,-2.6275 -61.8246,34.9095 -83.3516,58.4311 -5.8184,6.3573 -10.9548,11.5589 -11.4142,11.5589 -0.4593,0 -4.8214,-5.0301 -9.6936,-11.1781 -10.2334,-12.9132 -21.3064,-23.443 -27.9845,-26.6119 -8.4987,-4.0329 -15.9039,-2.9777 -59.5875,8.4915 -49.1925,12.9154 -88.0828,20.1177 -133.3333,24.6926 -20.445,2.067 -28.6954,3.4199 -36.8809,6.0478 -5.0219,1.6122 -7.2405,6.3706 -11.0045,23.6013 -4.0582,18.5776 -5.2461,31.9731 -6.2245,70.1912 l -0.9191,35.9011 -6.9712,10.7656 c -8.5219,13.1604 -10.3999,14.8342 -17.9274,15.979 -3.2602,0.4959 -27.2724,0.176 -53.3605,-0.7106 -26.08815,-0.8868 -49.13637,-1.1847 -51.21832,-0.6622 -3.72448,0.9348 -3.77093,1.0655 -2.88839,8.1292 0.79644,6.3746 0.5912,7.343 -1.8309,8.6392 -3.01515,1.6136 -63.9468,2.1196 -70.36731,0.5843 -5.54852,-1.3268 -7.07367,-3.0357 -7.07367,-7.9265 0,-3.1724 -0.98393,-5.1806 -3.51314,-7.17 -4.52658,-3.5607 -9.13848,-3.4947 -16.53767,0.2365 -9.27835,4.6788 -9.49504,6.0056 -9.96257,61 -0.43498,51.1644 -1.67,70.5698 -6.78858,106.6667 -6.06896,42.7991 -6.67493,63.8876 -4.09176,142.396 2.58216,78.4769 2.70086,92.6561 0.8922,106.5795 -3.04712,23.4572 -20.62332,39.8566 -33.56731,31.32 -5.09817,-3.3624 -8.09356,-7.7038 -12.39189,-17.9602 -4.36125,-10.4065 -4.08972,-10.4617 -13.84787,2.8168 -10.73114,14.6024 -10.12176,11.663 -10.85808,52.378 -0.62326,34.4639 -0.84025,37.0571 -3.33333,39.8395 -6.23201,6.9549 -22.89576,10.8321 -56.91652,13.2428 -22.08456,1.5648 -65.99761,1.5557 -81.08348,-0.017 z m 77.16068,-13.2952 c 9.80504,-0.748 24.70304,-2.8465 33.10666,-4.6635 8.40363,-1.8169 15.53132,-3.3034 15.83932,-3.3034 0.308,0 0.56,-10.4294 0.56,-23.1762 v -23.1762 l -11,-3.4158 c -47.98186,-14.8994 -64.45498,-17.7013 -73.89682,-12.5693 -12.20834,6.6357 -37.58195,34.8235 -51.04999,56.7119 -5.07492,8.2477 -4.34756,10.2057 4.35691,11.7282 17.23432,3.0146 55.58621,3.8856 82.08392,1.8643 z M 1784,2361.3702 c 16.9918,-2.1943 26.8922,-5.0283 30.6667,-8.7783 3.1395,-3.1191 3.3589,-4.2715 3.7724,-19.8133 0.5476,-20.577 -0.6165,-23.4814 -11.3892,-28.4132 -8.7889,-4.0238 -48.5667,-12.3434 -59.0499,-12.3504 -4.845,0 -8.732,0.8478 -11.4553,2.5085 -6.0856,3.7111 -17.6563,15.5291 -25.5961,26.1432 -6.5014,8.6912 -22.4475,37.6121 -21.3458,38.7139 0.2708,0.2708 6.471,1.3985 13.7782,2.5061 15.1137,2.2907 61.1652,1.9957 80.619,-0.5165 z M 747.62449,2294.3334 c 1.5158,-1.65 4.98485,-7.5 7.70903,-13 7.19777,-14.532 14.09725,-23.1639 21.30354,-26.6523 11.12891,-5.3875 19.70546,-0.5409 26.51866,14.9856 2.33461,5.3203 4.11198,7.6667 5.80757,7.6667 4.23089,0 8.24063,-3.9011 9.74244,-9.4784 1.88214,-6.9896 1.83288,-45.7658 -0.15136,-119.1883 -1.72963,-64.0012 -0.86227,-92.0028 4.02686,-130 6.15868,-47.864 8.42193,-93.4161 6.80569,-136.9772 -1.20579,-32.4988 -1.69131,-34.0911 -10.8414,-35.5541 -12.72104,-2.0343 -19.2046,-10.4323 -19.1478,-24.802 0.0611,-15.4352 9.54873,-27.0778 30.78139,-37.7724 6.50149,-3.2747 13.13093,-7.3656 14.73209,-9.0908 7.26623,-7.8294 8.18093,-13.3903 21.79013,-132.4702 9.4162,-82.3914 18.70235,-145.1814 21.95176,-148.4308 2.06774,-2.0677 2.66112,3.5788 2.48907,23.6858 -0.23651,27.6376 -2.13201,51.6001 -7.28112,92.0464 -2.19171,17.2157 -3.80703,33.6925 -3.58963,36.6152 0.36975,4.9706 0.74992,5.4161 5.88743,6.8968 9.00295,2.5949 37.92119,6.3173 39.08165,5.0308 0.58411,-0.6476 22.53419,-62.9775 48.77795,-138.5108 26.24376,-75.5334 47.95706,-137.9978 48.25176,-138.8098 0.3459,-0.9533 -3.1501,-1.8024 -9.8672,-2.3961 -19.48075,-1.7223 -24.83901,-4.4808 -30.53404,-15.7195 -9.36256,-18.4761 -13.84409,-61.6948 -27.90151,-269.0747 -2.01162,-29.6761 -4.90101,-55.378 -6.39332,-56.8703 -1.00524,-1.0052 -5.83616,1.7723 -15.73608,9.0475 -4.85576,3.5683 -11.50006,7.6696 -14.76513,9.1138 -6.76583,2.9929 -14.03376,8.9429 -30.86688,25.2698 -11.541,11.1939 -11.77352,11.3392 -10.84019,6.7726 1.90991,-9.3447 7.40978,-26.9865 9.98962,-32.0434 3.87417,-7.594 3.52928,-10.6233 -1.20948,-10.6233 -4.99987,0 -28.5675,6.1267 -33.62184,8.7404 -5.86791,3.0344 -10.46212,10.3123 -18.31704,29.0169 -3.90824,9.3066 -7.87799,16.9094 -8.8291,16.9094 -2.28073,0 -4.79287,-10.2376 -5.56203,-22.6667 -1.29012,-20.8477 -1.40012,-20.9857 -14.33489,-17.9859 -24.68039,5.7237 -123.42895,20.6388 -158.14775,23.8868 -18.95884,1.7736 -122.69847,8.728 -131.06469,8.7862 -1.61442,0.011 -3.63838,0.4676 -4.4977,1.0142 -2.67117,1.6992 -14.81364,85.0784 -19.16949,131.632 -2.30516,24.6367 -3.1614,99.1191 -1.37185,119.3334 3.07944,34.7844 10.96962,64.0437 28.04509,104 39.30589,91.9751 70.45372,130.4552 129.59482,160.1017 8.66588,4.344 15.99212,7.8983 16.2805,7.8983 0.2884,0 -0.30801,-3.9709 -1.32537,-8.8243 -3.68307,-17.5705 -7.15201,-84.3249 -7.12844,-137.1757 0.0201,-45.0151 3.08972,-33.2037 7.27693,28 4.63023,67.6791 7.08264,80.9575 30.04338,162.6667 29.87453,106.313 32.15638,117.7316 34.63812,173.3333 2.23769,50.1341 4.24277,62.7532 15.40813,96.9716 7.01497,21.4988 10.34855,39.6636 13.15735,71.6951 4.73458,53.9929 6.62886,92.6134 6.70329,136.6666 0.0859,50.8112 -0.14769,52.6218 -9.93411,77.0146 -9.87606,24.6161 -20.66505,38.2041 -44.98284,56.6525 -8.29996,6.2967 -14.62185,11.9071 -14.04864,12.4676 2.06311,2.0173 41.1647,13.0645 46.47644,13.1308 3.98748,0.049 6.16798,-0.7308 8.19023,-2.9321 z m 1076.45031,-4.5303 c 1.8639,-4.9023 13.5015,-19.2731 21.0075,-25.9413 8.5704,-7.6138 20.6304,-13.1927 28.5216,-13.194 9.4393,0 13.0159,2.2277 16.6092,10.3528 4.3785,9.9005 11.11,11.9302 15.8047,4.7653 1.2796,-1.9529 4.5022,-17.3985 8.0046,-38.3647 3.2246,-19.3025 8.0315,-45.2189 10.6822,-57.5917 13.615,-63.5528 41.1888,-159.7039 57.839,-201.6876 6.4768,-16.3315 11.4416,-24.8008 25.588,-43.6505 5.7927,-7.7187 11.0998,-16.3035 11.8879,-19.2302 3.4212,-12.7056 -3.9992,-50.9762 -13.8172,-71.2612 -7.4333,-15.3582 -14.0228,-23.5673 -27.7948,-34.6272 -16.5795,-13.3144 -20.8273,-19.3289 -37.6953,-53.3728 -31.5502,-63.6761 -46.7707,-106.626 -58.1183,-164 -5.6248,-28.439 -8.6311,-39.3333 -10.8541,-39.3333 -0.7587,0 -5.9604,4.3821 -11.5595,9.738 -14.2993,13.6781 -27.2588,24.8819 -48.8469,42.2293 -25.5714,20.5482 -45.2464,38.0904 -51.5038,45.9206 -12.3621,15.4697 -25.1629,53.0266 -25.1629,73.8273 0,6.5433 0.6867,8.8643 4.1849,14.1457 10.6164,16.0278 47.6004,43.3579 93.1484,68.8338 12.1,6.7677 24.7,14.1441 28,16.392 42.0663,28.6541 64,63.5924 64,101.9456 0,22.2316 -12.4253,96.7484 -23.5058,140.9677 -8.9538,35.7325 -22.2139,72.3004 -34.0711,93.9592 -3.0233,5.5224 -10.1509,16.9408 -15.8392,25.3741 -5.6883,8.4334 -14.6769,23.1334 -19.9749,32.6667 -14.7178,26.4833 -24.0967,36.7908 -47.9423,52.6883 -10.6119,7.0746 -20,14.5994 -20,16.0302 0,2.2006 47.2681,15.6474 55.6997,15.8455 3.5416,0.083 4.6198,-0.564 5.7084,-3.4276 z m -487.4081,-134.4236 c 20.0023,-4.0744 42.2175,-11.3164 56.7996,-18.5161 14.3428,-7.0815 15.8651,-9.7244 15.8576,-27.53 0,-14.7932 -1.4576,-21.0366 -6.2005,-26.6732 -4.9238,-5.8515 -9.8264,-7.9623 -21.6163,-9.307 -13.7424,-1.5674 -43.3925,0.495 -47.7007,3.3178 -10.0528,6.5868 -32.7408,51.5134 -37.1162,73.4974 -0.5835,2.9319 -0.1874,4.8106 1.3354,6.3334 3.2362,3.2362 19.5735,2.7617 38.6411,-1.1223 z m 61.1937,-97.7128 c 0.4064,-2.0167 1.6531,-9.1043 2.7703,-15.7501 3.4928,-20.7768 7.9757,-32.9931 14.2577,-38.853 10.7512,-10.0285 28.7195,-8.1242 31.2006,3.3067 1.8825,8.6731 4.0678,14.1491 6.1664,15.4513 3.6118,2.2415 7.3986,-2.3317 9.0842,-10.9706 2.7063,-13.8703 9.4919,-35.4499 13.5302,-43.0282 4.7742,-8.9598 9.8734,-12.1188 29.7969,-18.4594 49.5311,-15.7634 125.7964,-28.4959 183.3333,-30.6076 24.4042,-0.8956 32.5831,-1.6531 36.9848,-3.4248 12.6815,-5.1048 29.9658,-30.9694 33.6131,-50.2995 l 1.6669,-8.8348 -6.019,-12.4316 c -9.8227,-20.288 -21.2811,-59.9337 -27.0999,-93.7651 -3.1683,-18.4212 -3.2031,-57.505 -0.064,-71.0982 7.4755,-32.3642 22.7768,-52.5804 64.1557,-84.7628 44.5238,-34.6284 78.966,-70.2447 101.7402,-105.2087 19.6542,-30.1741 41.2534,-86.2963 50.9029,-132.2636 6.6801,-31.8222 8.6033,-50.3046 8.6713,-83.3334 0.072,-34.9485 -1.9773,-52.5552 -9.9917,-85.849 -4.3084,-17.8983 -5.7327,-21.9378 -8.5329,-24.201 -1.8488,-1.4943 -3.3614,-4.0443 -3.3614,-5.6667 0,-1.6225 -0.6,-2.9499 -1.3333,-2.9499 -0.7333,0 -1.3333,-0.854 -1.3333,-1.8977 0,-1.0438 -1.5,-3.6804 -3.3334,-5.8592 -1.8333,-2.1788 -3.3333,-4.4975 -3.3333,-5.1526 0,-0.6552 -1.7756,-3.2686 -3.9459,-5.8075 -2.1701,-2.539 -3.9701,-5.1777 -4,-5.8639 -0.029,-0.6861 -2.4541,-4.0938 -5.3874,-7.5725 -2.9334,-3.4788 -5.3334,-6.871 -5.3334,-7.5382 0,-1.4857 -17.309,-14.0386 -30,-21.7565 -27.2269,-16.5579 -63.7748,-30.1831 -93.645,-34.9111 -16.8952,-2.6742 -23.1796,-2.9048 -79.0216,-2.8988 -71.2826,0.01 -73.8479,0.2191 -170.6667,14.0667 -71.288,10.1961 -75.7091,11.2601 -80.3204,19.3305 -3.7011,6.4774 -4.8165,15.4785 -7.5843,61.1941 l -2.583,42.6667 33.7981,56.6666 c 38.1085,63.8934 47.4231,80.5719 55.1149,98.6884 6.8607,16.159 9.1312,27.2421 6.9407,33.8791 -2.0048,6.0748 -7.412,12.5847 -11.9144,14.3444 -21.4419,8.3798 -53.1749,-19.8214 -76.1751,-67.6969 -4.281,-8.911 -8.6757,-16.5441 -9.766,-16.9624 -4.079,-1.5653 -6.8318,6.0482 -8.8274,24.4141 -2.7519,25.3263 -5.5335,32.5658 -14.5323,37.8214 -7.3435,4.2886 -25.4165,4.2041 -82.4822,-0.386 -63.9136,-5.141 -68.3216,-5.1768 -77.4441,-0.6308 -7.6062,3.7902 -10.0318,6.5365 -19.8987,22.5288 -20.4562,33.1553 -87.8473,163.0329 -102.966,198.4385 -6.4213,15.0376 -6.4139,19.1507 0.037,20.4408 2.1957,0.4392 4.3042,1.3033 4.6856,1.9204 1.0865,1.758 -2.6778,8.0965 -11.1296,18.7403 -17.8298,22.4538 -20.9478,29.4784 -13.9526,31.4345 13.9539,3.9024 91.9665,-7.4595 143.6666,-20.9237 54.839,-14.2816 102.2146,-32.1463 169.3334,-63.853 20.0414,-9.4674 22.7709,-11.1413 23.5674,-14.4528 0.4955,-2.0597 1.5556,-21.145 2.3559,-42.4117 1.4763,-39.2261 3.0008,-56.4224 5.5868,-63.0171 l 1.4312,-3.6496 1.4583,3.3334 c 0.937,2.1418 1.6434,21.164 1.9761,53.2162 l 0.5179,49.883 14.7789,24.7837 c 39.6145,66.4319 54.4505,84.6143 123.0323,150.7837 30.838,29.7532 37.2952,41.1803 37.2952,66 0,17.1736 -1.7459,21.6528 -13.1472,33.73 -21.5923,22.872 -46.7228,32.8531 -123.4883,49.0458 -50.9031,10.7373 -86.8429,21.4566 -99.5011,29.677 -20.5657,13.3556 -37.7814,40.0194 -37.8922,58.6876 -0.051,8.4264 -4.9832,27.7199 -13.822,54.0578 -4.7008,14.0077 -8.9716,26.5185 -9.4908,27.8018 -0.8822,2.1811 1.016,2.3334 29.093,2.3334 h 30.0367 l 0.7389,-3.6667 z m -901.28897,-74.4285 c 3.64444,-3.6446 1.82879,-20.0107 -5.31102,-47.8734 -9.68687,-37.8022 -21.78786,-61.6601 -32.46224,-64.0016 -4.40762,-0.9668 -23.74042,3.8978 -28.1315,7.0786 -1.83333,1.328 -4.3824,4.4718 -5.6646,6.9864 -4.87245,9.5554 -1.65722,49.719 5.08535,63.5244 4.3226,8.8505 11.75849,15.3626 27.49831,24.0822 20.56618,11.3932 34.22181,14.9672 38.9857,10.2034 z m -87.06801,-44.1063 c 1.38016,-1.6605 1.93644,-8.7061 2.26333,-28.6667 l 0.43342,-26.4652 -13.10008,-0.016 c -27.03498,-0.032 -48.16063,-10.7829 -52.44311,-26.6868 -3.14167,-11.6673 1.49234,-17.9506 14.80629,-20.0762 4.6952,-0.7495 9.36452,-2.1802 10.37627,-3.1791 4.83119,-4.7701 -4.07317,-15.6773 -19.34277,-23.6933 -32.50741,-17.0655 -43.77151,-34.9495 -50.39617,-80.0139 -10.63533,-72.3469 -0.37849,-126.7235 26.3175,-139.5216 18.97749,-9.098 36.28056,-4.3307 110.91524,30.5595 55.7876,26.0794 73.72877,33.3426 98.66667,39.9437 49.55956,13.1185 82.05824,7.2248 119.66667,-21.7017 5.68333,-4.3714 10.33333,-8.1746 10.33333,-8.4516 0,-0.2771 -10.65,-5.7822 -23.66667,-12.2335 -24.87757,-12.33 -34.51325,-18.0133 -47.64594,-28.1029 -18.65775,-14.3343 -33.56318,-30.6155 -48.36314,-52.8267 -12.45037,-18.6851 -9.78841,-17.6613 -34.61284,-13.3109 -17.70517,3.1028 -26.017,3.7872 -52.37808,4.3125 -42.85535,0.8541 -76.08587,-1.9928 -130,-11.1375 -33.57362,-5.6945 -51.63694,-5.8738 -65.04611,-0.6453 -18.41435,7.18 -38.98623,34.8107 -45.74975,61.4479 -2.92958,11.5377 -1.89234,25.4089 3.4397,46 7.3781,28.4924 18.9634,98.5038 29.34461,177.3333 7.85148,59.62 13.44929,84.9995 22.87397,103.7061 5.84042,11.5924 12.06251,17.793 20.23207,20.1623 18.25985,5.2955 82.69642,14.92 102.40892,15.2963 6.73484,0.128 9.272,-0.355 10.66667,-2.0328 z m 528.03499,-93.1147 c 0.78774,-0.7877 -0.5827,-12.655 -4.92918,-42.6838 -3.65986,-25.2851 -5.46906,-33.1167 -7.37782,-31.9371 -0.71009,0.4389 -3.13557,4.4519 -5.38997,8.9179 -5.54628,10.987 -25.16743,59.7909 -25.17149,62.6092 -0.003,1.6866 1.42812,2.3856 5.6634,2.767 8.92464,0.8039 36.48593,1.0459 37.20506,0.3268 z m -79.5384,-16.8268 c 14.53324,-1.7784 23.58247,-4.5178 26.91696,-8.1486 5.13323,-5.5894 19.41539,-38.4872 17.52806,-40.3746 -1.82203,-1.822 -54.85698,11.4364 -69.42443,17.3558 -14.93006,6.0665 -21.98395,14.1602 -20.18414,23.1593 2.0949,10.4744 11.45133,12.1335 45.16355,8.0081 z m 202.76159,-3.2437 c 7.4177,-6.0049 8.6365,-11.0655 9.1393,-37.9467 0.7387,-39.5009 2.9878,-54.203 16.3022,-106.5661 3.9949,-15.7113 7.0835,-30.6753 6.8635,-33.2535 l -0.3999,-4.6873 -9.4885,8.5868 c -5.2187,4.7228 -17.1805,16.8249 -26.5819,26.8939 -9.4014,10.0688 -17.1942,18.1688 -17.3174,18 -0.1232,-0.169 -4.2465,-9.3071 -9.1629,-20.3071 -11.1805,-25.0153 -14.8239,-31.3333 -18.0688,-31.3333 -4.1366,0 -5.6818,6.6854 -8.7828,38 -3.41271,34.4617 -7.17868,49.904 -15.36408,63 -1.03131,1.65 -2.56657,3 -3.41172,3 -0.84513,0 -1.88197,0.9 -2.30409,2 -0.42211,1.1 -1.9863,2 -3.47599,2 -1.48968,0 -2.70851,0.6 -2.70851,1.3333 0,0.7333 -1.5,1.3333 -3.33333,1.3333 -1.83333,0 -3.33333,0.5632 -3.33333,1.2516 0,0.6884 -2.7,1.6566 -6,2.1515 -4.67276,0.7007 -6,1.4561 -6,3.4149 0,2.0386 -0.9941,2.5154 -5.24348,2.5154 -4.13347,0 -5.42914,0.5849 -6.12046,2.763 -0.52725,1.6612 -1.6265,2.4755 -2.75652,2.0419 -1.03374,-0.3967 -1.87954,-0.4152 -1.87954,-0.041 0,4.0658 7.0894,49.4976 7.84338,50.2636 0.55612,0.565 14.16886,2.5036 30.25054,4.3078 44.72443,5.0182 53.67583,5.7766 65.45003,5.5452 9.974,-0.1958 11.293,-0.5501 15.8843,-4.2669 z m -171.42825,-59.8903 c 19.44472,-4.9977 22.70442,-8.5012 30.4468,-32.723 7.28065,-22.7774 6.91849,-26.3664 -3.10807,-30.8016 -5.13953,-2.2735 -6.0054,-3.2175 -6.0054,-6.5475 0,-2.1401 0.93673,-6.6501 2.08164,-10.0224 3.0426,-8.9617 2.24729,-11.6331 -4.08164,-13.7093 -6.91211,-2.2678 -26.69415,-3.6988 -27.73983,-2.0068 -2.05193,3.32 -16.29725,96.8702 -15.05657,98.8777 0.84147,1.3615 11.81308,-0.072 23.46307,-3.0671 z M 2112.5332,1755 c -7.0261,-20.5593 -14.075,-59.8582 -20.7468,-115.6666 -2.598,-21.7323 -2.2198,-71.7754 0.7154,-94.6667 4.8842,-38.0924 12.4868,-75.2163 21.025,-102.6667 3.2168,-10.3421 4.3871,-12.735 5.2166,-10.6666 0.588,1.4666 1.1442,20.6666 1.2358,42.6666 0.224,53.7791 1.9272,92.2406 4.6647,105.3334 6.6767,31.9336 42.5361,122.0781 47.8437,120.271 1.9251,-0.6553 1.485,-24.2809 -1.5202,-81.6044 -2.7668,-52.7744 -3.0978,-156.2854 -0.5902,-184.6086 6.197,-69.993 16.5483,-119.6169 39.0754,-187.3248 20.4864,-61.5746 21.32,-65.6413 21.3648,-104.2221 0.037,-32.0249 -1.2428,-40.3713 -8.3955,-54.7434 -17.6135,-35.3915 -43.1993,-52.4443 -86.9587,-57.9576 -19.5825,-2.4673 -59.5165,-2.1045 -71.817,0.6523 -27.1924,6.0945 -65.8759,22.7298 -90.7422,39.0223 -15.1016,9.8947 -22.5814,15.7748 -37.9502,29.8331 -9.3374,8.5411 -10.3862,9.9569 -8.7843,11.8573 1.0004,1.187 3.6579,4.2351 5.9053,6.7736 2.2475,2.5384 4.7746,7.1884 5.6156,10.3333 0.8412,3.1449 2.005,5.7179 2.5862,5.7179 0.5812,0 1.0568,0.9429 1.0568,2.0953 0,1.1524 0.9,2.9952 2,4.0952 1.1,1.1 2.0092,3.6072 2.0204,5.5715 0.044,7.7554 0.9786,7.7203 22.1442,-0.832 36.4919,-14.7453 50.9354,-17.351 62.502,-11.276 6.0958,3.2015 17.073,14.1934 22.9819,23.0127 8.2021,12.2419 8.8935,16.1566 8.9473,50.6667 0.065,42.0559 -0.7824,45.6419 -23.448,99.1494 -33.1882,78.3487 -44.0657,111.7003 -49.6357,152.1878 -5.4879,39.8901 -6.2015,102.8935 -1.5481,136.6628 6.8282,49.5513 30.5097,118.8431 51.6177,151.0327 3.7385,5.7013 6.9503,10.2013 7.1369,10 0.1868,-0.2014 -0.7824,-6.066 -2.1537,-13.0327 -10.8859,-55.3007 -20.6625,-141.3333 -16.0608,-141.3333 0.6439,0 2.4256,3.45 3.9593,7.6666 1.5338,4.2167 5.8586,16.0667 9.6108,26.3334 11.0968,30.3629 37.7283,83.243 55.5468,110.2952 6.1598,9.3516 17.2119,22.3714 18.9906,22.3714 0.567,0 -0.9682,-5.85 -3.4118,-13 z M 961.72711,1743.0235 c 11.66862,-5.4269 18.63506,-12.0721 20.89246,-19.9291 0.80502,-2.8018 2.45316,-11.5182 3.66252,-19.3697 2.40943,-15.6424 1.51034,-21.058 -3.49604,-21.058 -3.40485,0 -7.2194,5.5123 -12.0801,17.4564 -4.99864,12.2831 -6.51272,13.7555 -14.21416,13.8228 -7.15926,0.063 -10.49231,3.2917 -12.54848,12.1573 -1.45524,6.2746 -1.6643,21.0647 -0.31678,22.4123 1.43412,1.4341 6.53919,-0.1147 18.10058,-5.492 z m -9.92986,-48.9187 c 7.36331,-3.8076 8.68163,-7.2692 39.39444,-103.4381 34.32441,-107.4776 37.22061,-119.2936 37.33061,-152.3017 0.047,-14.1972 -0.4455,-22.8215 -1.3561,-23.732 -1.7781,-1.7783 -6.1784,9.5061 -26.5289,68.0337 -8.28706,23.8333 -24.70378,70.7457 -36.48159,104.2496 -30.5365,86.8661 -34.21526,100.458 -28.80739,106.4336 2.88512,3.188 11.02175,3.5615 16.44893,0.7549 z m 104.92895,-35.1577 c 11.346,-13.3217 25.5689,-25.5052 34.8885,-29.886 10.5765,-4.9716 14.7275,-11.3317 29.8446,-45.7277 3.8676,-8.8 25.8444,-53.4471 48.8373,-99.2158 22.993,-45.7685 41.3324,-83.684 40.7544,-84.2562 -0.578,-0.5724 -6.8365,-1.6303 -13.9077,-2.3508 -15.0738,-1.5362 -19.3549,-3.4254 -36.7926,-16.2364 -17.001,-12.4903 -21.7556,-13.9411 -45.684,-13.9398 -18.1197,10e-4 -65.5238,4.9779 -69.2298,7.2683 -0.8656,0.5349 -1.9191,14.1301 -2.7483,35.4657 -2.0214,52.0119 -6.0635,84.2879 -17.4711,139.504 -3.6848,17.8352 -7.9672,38.754 -9.5165,46.4863 l -2.8169,14.0588 15.5841,31.8484 c 8.5712,17.5167 16.0621,31.2903 16.6464,30.608 0.5843,-0.6823 5.8095,-6.8144 11.6116,-13.6268 z m -67.5878,5.6647 c 2.69184,-3.4222 7.72248,-22.2283 9.13388,-34.1455 0.87403,-7.3796 -1.05557,-8.6867 -4.10855,-2.7828 -3.40398,6.5825 -11.49705,31.1425 -11.49705,34.89 0,6.3317 2.48007,7.1128 6.47172,2.0383 z m 390.9131,-12.3056 c 2.5384,-1.2984 11.8152,-7.8166 20.6152,-14.485 18.8692,-14.2985 32.26,-23.3458 46,-31.0796 5.5,-3.0957 11.05,-6.5721 12.3333,-7.725 2.9271,-2.6299 2.9824,-6.8299 0.1434,-10.8831 -1.9174,-2.7375 -2.9544,-3.0349 -8.3334,-2.3899 -3.3788,0.4054 -10.6433,2.6284 -16.1433,4.9403 -19.8019,8.3236 -86.6667,41.8199 -86.6667,43.4161 0,1.9015 13.4866,14.535 19.3334,18.1106 4.985,3.0485 6.9161,3.063 12.7181,0.096 z m 140.4819,-268.7372 c 2.2006,-2.9587 2.8,-5.7047 2.8,-12.8284 0,-8.365 -0.5867,-10.2339 -7.6086,-24.2357 -7.9668,-15.8858 -35.288,-63.1067 -53.3682,-92.2395 -10.3391,-16.6594 -19.1002,-27.5987 -22.1032,-27.5987 -3.4914,0 -4.7928,6.5348 -5.3367,26.7954 -0.6756,25.1715 0.2717,29.1877 12.6164,53.4846 20.0637,39.4896 40.7845,68.3976 56.4669,78.7781 5.2162,3.4527 13.1292,2.4208 16.5334,-2.1558 z m -304.9093,-1.6219 c 8.8341,-3.9284 20.0422,-14.3005 23.2707,-21.5351 1.4768,-3.3092 3.0323,-11.4656 3.8142,-20 0.7263,-7.9266 3.4107,-94.212 5.9654,-191.7453 2.5548,-97.5334 5.3201,-200.73336 6.1452,-229.33336 0.8251,-28.6 1.5782,-77.5 1.6736,-108.66666 0.1989,-64.97382 0.1495,-65.35274 -9.0516,-69.42282 -20.2062,-8.93817 -82.2504,-10.11096 -98.2128,-1.85646 -9.347,4.83354 -12.5632,23.96 -11.2011,66.61261 2.3158,72.5162 16.9735,431.08949 20.0028,489.33329 3.3924,65.2223 4.7224,72.3211 15.0745,80.4551 14.0117,11.0096 27.2864,12.9323 42.5191,6.1587 z m 184.9817,-15.8357 c 13.0128,-5.4371 15.0328,-19.9726 26.6964,-192.1114 3.3292,-49.1333 7.232,-105.8333 8.673,-126 4.653,-65.11748 5.3278,-78.48325 6.6307,-131.33332 1.8928,-76.77258 -0.2937,-113.69348 -7.7287,-130.50114 -3.521,-7.9601 -12.2742,-16.41746 -20.9733,-20.26462 -14.8137,-6.55134 -47.1959,-10.8237 -105.2372,-13.88455 -30.2375,-1.5946 -32.8515,-1.61497 -34.9645,-0.27253 -1.9403,1.23273 -3.4088,36.67024 -6.3646,153.5895 -2.0709,81.91759 -2.4794,96.67946 -7.9516,287.33336 -1.7891,62.3333 -3.4241,124.6197 -3.6334,138.4141 l -0.3804,25.0808 27.9806,0.4191 c 22.3265,0.3342 32.6955,1.1534 51.3139,4.0536 42.1257,6.562 45.9208,7.072 53.7095,7.2196 4.2402,0.08 9.7436,-0.7037 12.2296,-1.7425 z M 1030,1362.0392 c 11.7333,-1.0724 38.4333,-3.1601 59.3333,-4.6392 20.9,-1.4792 42.4352,-3.0585 47.856,-3.5096 l 9.8559,-0.82 -0.902,-25.5352 c -2.571,-72.7836 -5.5542,-148.4396 -12.1525,-308.2019 -3.998,-96.79996 -7.8923,-192.79996 -8.6541,-213.33329 -0.7617,-20.53333 -1.7328,-41.76319 -2.1578,-47.17744 l -0.7729,-9.84411 -29.5363,0.9029 c -52.4824,1.60434 -79.7791,4.57404 -99.07753,10.77901 -10.22879,3.28881 -14.69518,5.9876 -25.22086,15.23953 l -5.19525,4.56656 -0.49769,116.10011 c -0.53764,125.41913 0.36026,161.61823 5.7902,233.43343 10.09309,133.4894 17.95285,213.8223 22.07816,225.6563 1.34932,3.8705 4.51313,5.9644 11.25337,7.4476 4.539,0.9988 6.0564,0.941 28,-1.0647 z M 326.22036,1170.73 c 17.95003,-8.9843 19.11298,-11.5583 19.11298,-42.3043 0,-18.5038 0.41849,-23.0854 2.7374,-29.969 1.50557,-4.4692 2.55557,-9.4003 2.33333,-10.9579 -0.55173,-3.8671 -8.29425,-7.4942 -16.00288,-7.4967 -5.54637,0 -6.65808,0.5126 -9.68615,4.4826 -9.92461,13.0119 -21.17394,60.2986 -18.67248,78.4902 0.89692,6.5227 4.8407,13.0251 7.89982,13.0251 0.96186,0 6.48696,-2.3715 12.27798,-5.27 z m -91.55369,-4.8313 c 13.58823,-6.3158 16.36577,-10.5367 19.38799,-29.4627 2.95781,-18.5229 6.67812,-32.4541 12.60658,-47.2071 6.74814,-16.7928 7.40118,-20.6861 4.63099,-27.6095 -3.23689,-8.0898 -14.41224,-17.7474 -41.57896,-35.9321 -29.91628,-20.0252 -39.01253,-25.4805 -44.22481,-26.52293 -3.46918,-0.69384 -4.1553,-0.4183 -4.15618,1.66893 -0.001,4.2941 -7.21821,17.8843 -17.96552,33.8334 -13.38324,19.8608 -20.70009,34.3873 -20.70009,41.097 0,8.1456 8.06139,18.9441 34.30008,45.9462 13.03496,13.4142 28.49992,29.6194 34.36659,36.0115 6.64013,7.2348 11.6733,11.6152 13.33333,11.6039 1.46667,-0.01 5.96667,-1.5519 10,-3.4266 z m -41.84941,-62.9935 c -11.17095,-17.6959 -9.68772,-40.6972 3.18274,-49.3569 4.02558,-2.7085 5.72448,-3.0329 12.36678,-2.361 12.66006,1.2805 18.79614,5.987 25.7841,19.7771 5.30403,10.467 3.55144,11.1843 -6.27858,2.5698 -11.1913,-9.8075 -16.25526,-12.0815 -20.98851,-9.4247 -5.55492,3.1178 -8.5724,9.7911 -9.2122,20.373 -0.31649,5.2346 -0.0208,11.9175 0.65713,14.8508 2.25408,9.7533 -0.48764,11.5302 -5.51146,3.5719 z m 353.84941,-30.8908 c 69.19394,-1.2651 98.46557,-2.6541 128.66667,-6.1055 50.90112,-5.817 188.78349,-30.476 246.00001,-43.995 10.63333,-2.5124 20.68333,-4.8822 22.33333,-5.2663 2.99397,-0.697 3,-0.7548 3,-28.76284 0,-26.09572 -0.16368,-28.0172 -2.33333,-27.39097 -1.28334,0.37041 -9.23334,2.77934 -17.66667,5.35318 -30.28236,9.24214 -153.7719,40.79053 -190.66667,48.71033 -13.56667,2.9123 -42.66667,8.6034 -64.66667,12.647 -99.34259,18.2591 -107.44115,18.9982 -227.55392,20.767 -45.95465,0.6767 -88.08321,1.6408 -93.61902,2.1425 l -10.0651,0.9121 -1.98236,6.7624 c -2.35603,8.0372 -1.53668,9.5396 6.37572,11.6913 13.3818,3.639 89.55544,4.594 202.17801,2.5348 z m -233.36057,-5.6811 c 8.1322,-4.1553 11.08202,-8.6913 11.694,-17.982 0.40137,-6.0936 -0.1328,-8.9268 -2.5803,-13.6846 -4.1501,-8.0677 -9.87206,-10.9769 -20.27417,-10.3079 -7.18697,0.4623 -8.28416,0.9659 -12.91225,5.9275 -9.33014,10.0024 -8.36268,21.6133 2.72582,32.7137 7.42392,7.4319 11.94436,8.1378 21.3469,3.3333 z m 514.17821,-1.8223 c 2.23149,-5.3407 1.68353,-8.511 -1.47103,-8.511 -2.81729,0 -5.21116,5.7019 -4.15708,9.9017 1.20145,4.787 3.25937,4.2785 5.62811,-1.3907 z m 649.75669,-2.5851 c 16.2704,-2.5094 22.5537,-4.0028 23.8429,-5.6666 2.2063,-2.8476 1.5851,-7.3418 -5.2708,-38.1308 -18.3195,-82.2722 -36.2545,-207.38654 -46.4635,-324.12849 -7.6392,-87.35487 -16.2701,-114.68274 -50.6829,-160.4773 L 1386,516.66667 l -68.7209,-0.34518 -68.7209,-0.34519 -16.9823,18.34519 c -27.7583,29.98613 -45.3363,55.31444 -63.6252,91.67852 -15.8403,31.49552 -25.6181,58.70341 -29.9571,83.35924 -2.1865,12.42421 -2.5973,22.64076 -0.9104,22.64076 0.5958,0 6.3964,-1.79597 12.8903,-3.99105 16.9568,-5.73175 30.7942,-8.01143 48.5071,-7.99143 18.7062,0.0211 34.411,3.00511 52.1861,9.91564 26.7213,10.38865 30.7521,10.71251 34.0839,2.73843 1.5748,-3.76908 1.8506,-14.76575 1.5788,-62.95254 -0.3457,-61.27099 0.4328,-74.51683 5.8868,-100.17149 2.7926,-13.13539 6.5705,-23.32932 10.0858,-27.21423 2.4906,-2.75255 8.1557,-3.09612 9.1312,-0.5538 0.3756,0.97875 -0.8212,6.96989 -2.6595,13.31367 -6.9839,24.09966 -8.1099,37.0581 -8.0737,92.9068 0.036,55.27777 1.8639,84.81223 5.4172,87.52152 2.5342,1.93225 15.5091,3.79645 49.8828,7.16701 76.7583,7.52664 88.1884,14.91527 94.8484,61.31147 2.887,20.11111 2.4915,174.3254 -0.5572,217.33329 -1.2736,17.9667 -2.6469,35.2167 -3.0518,38.3334 -0.7343,5.6528 -0.7255,5.6666 3.5866,5.6666 2.3775,0 14.2642,-1.5333 26.415,-3.4074 z m -579.871,-2.8047 c 15.90835,-10.6749 29.14709,-20.9512 28.44807,-22.0823 -0.51539,-0.8339 -4.21544,-1.1045 -9.40515,-0.6879 -14.01837,1.1252 -27.07957,11.3407 -27.07957,21.1795 0,4.4674 2.89554,5.0405 8.03665,1.5907 z M 374.16097,1032.669 c 3.67649,-1.8321 12.92194,-9.1075 20.54542,-16.1675 15.02211,-13.9118 20.76451,-18.40047 40.02314,-31.28477 31.18801,-20.86521 59.74529,-59.13796 67.86406,-90.95209 6.39172,-25.04655 7.22102,-79.64274 1.54959,-102.01576 -3.75688,-14.8204 -3.72125,-15.17324 1.48093,-14.66668 5.53279,0.53876 9.28572,6.00073 13.67919,19.9085 7.01955,22.22082 11.73963,54.43882 14.26131,97.34387 1.8097,30.79107 0.36814,59.38557 -4.9993,99.16544 -5.25269,38.92929 -5.26685,39.14779 -2.6026,40.17019 5.97058,2.2911 130.12405,-16.1812 194.70397,-28.9693 41.94742,-8.30642 103.22859,-23.65059 108.83847,-27.25205 5.4028,-3.4685 9.89024,-11.56589 12.84141,-23.17179 1.78623,-7.02457 3.94729,-57.50925 2.80121,-65.43921 -0.4151,-2.87228 -1.3775,-1.88848 -7.01701,7.17307 -11.01845,17.7044 -28.66846,33.3615 -52.79742,46.83596 -16.53776,9.23526 -26.37976,16.57093 -42.2371,31.48115 -7.76536,7.30156 -14.78876,13.04384 -15.60754,12.76062 -0.83728,-0.28961 -1.4688,-3.42793 -1.44324,-7.17214 0.0584,-8.55668 3.723,-15.97176 25.24559,-51.08317 18.13808,-29.59001 21.23569,-36.30848 23.52792,-51.03024 2.36172,-15.16794 0.88615,-58.42041 -2.30743,-67.63642 -2.17673,-6.28164 -24.20442,-42.1136 -25.23102,-41.04275 -0.1983,0.20684 -1.05975,8.47608 -1.91434,18.37608 -1.9447,22.52825 -4.21946,33.82575 -8.51946,42.31139 -7.27247,14.35152 -14.69255,20.09226 -37.66128,29.13766 -8.71866,3.43354 -20.10328,8.56212 -25.29918,11.39687 -5.19589,2.83475 -9.91093,5.15408 -10.47788,5.15408 -3.57129,0 6.48947,-18.95205 18.10742,-34.11001 16.15946,-21.08328 19.36096,-41.62118 10.44316,-66.99388 -3.92974,-11.18079 -32.64102,-53.02659 -38.55388,-56.19104 -2.24262,-1.20022 -2.38907,-0.39199 -2.23578,12.33862 0.15171,12.59871 -0.13053,14.20484 -3.75437,21.36194 -4.4944,8.87653 -11.80877,16.04822 -19.90853,19.5202 -8.55668,3.66781 -13.24415,4.38072 -15.92324,2.42172 -3.18171,-2.32652 -4.84879,-14.64559 -4.91874,-36.34755 l -0.0559,-17.33333 -24.30429,-16.23518 c -13.36734,-8.92933 -25.61482,-16.87933 -27.21661,-17.66666 -4.23365,-2.08096 -6.15944,-1.75904 -5.39497,0.90184 0.36869,1.28333 2.25961,7.72272 4.20204,14.30974 6.39408,21.68318 4.49817,39.42706 -5.24099,49.0506 -7.95803,7.86355 -14.93076,5.6335 -18.68692,-5.97656 -3.43979,-10.63218 -4.51389,-11.25808 -10.72643,-6.25034 -2.88221,2.32325 -7.74305,5.35078 -10.80188,6.72786 -3.05882,1.37707 -7.20406,4.44663 -9.21165,6.82123 -5.33561,6.31108 -12.29928,21.73811 -14.44788,32.00731 -1.4996,7.16737 -2.70836,9.65053 -6.07783,12.48574 -2.87344,2.41786 -7.70325,10.76538 -15.24496,26.34842 -20.74885,42.87229 -52.13802,99.15468 -88.56933,158.80933 -12.09192,19.79999 -23.83816,39.45369 -26.10275,43.67499 -5.045,9.4039 -4.25975,10.2752 9.28744,10.3046 7.38539,0.016 10.84023,-0.6949 16.08942,-3.3106 z m 65.83904,-87.01794 c 0,-0.5586 3.88674,-5.67198 8.6372,-11.3631 23.58505,-28.2552 33.66372,-51.1902 40.44602,-92.03888 l 3.58344,-21.5824 0.42379,16.66666 c 0.52132,20.50286 -1.83305,47.67827 -4.92385,56.83352 -3.45639,10.2382 -10.41739,21.0099 -20.83327,32.23815 -10.87123,11.71911 -27.33333,23.31047 -27.33333,19.24605 z m 67.37234,81.45504 c 3.67792,-9.7846 6.76032,-32.64907 8.59734,-63.77275 1.74517,-29.56769 1.74424,-47.33334 -0.003,-47.33334 -0.75139,0 -3.00139,2.77497 -5,6.16661 -23.51687,39.90805 -40.81935,58.43891 -77.03065,82.49938 -27.56714,18.3169 -37.77922,28.8043 -29.60319,30.4011 1.65,0.3223 24.81296,0.514 51.47324,0.4261 l 48.47324,-0.1599 3.09253,-8.2272 z m -232.67368,-1.2031 c 0.82188,-2.4903 1.10545,-5.753 0.63017,-7.2505 -1.61585,-5.0911 -60.68588,-42.00601 -72.4283,-45.26295 -5.51363,-1.5293 -7.45782,-0.82002 -9.39274,3.42668 -2.82688,6.20434 0.94578,9.91128 28.7836,28.28217 30.00934,19.804 44.88146,27.647 49.24783,25.9714 0.91583,-0.3514 2.33757,-2.6765 3.15944,-5.1668 z m 64.46069,-12.5527 c 10.96383,-12.1356 45.29689,-69.60564 80.46109,-134.68362 22.62496,-41.87175 63.33572,-122.65578 62.67685,-124.37223 -0.7364,-1.91841 -23.47821,-14.96111 -26.08685,-14.96111 -1.01848,0 -3.9576,5.45767 -6.82136,12.66667 -14.82899,37.32931 -62.76434,132.78121 -101.44315,202 -17.58046,31.46162 -25.8704,47.63889 -27.1072,52.89799 -0.63115,2.6837 0.0147,4.5783 2.61333,7.6666 4.95199,5.8851 9.6194,5.5243 15.70729,-1.2143 z m -36.8343,-8.6907 c 5.40594,-6.5584 33.39308,-53.69648 50.26461,-84.65959 17.18626,-31.54068 59.25682,-115.32925 72.63768,-144.66667 18.15824,-39.81173 21.90823,-51.7175 18.11364,-57.50877 -2.79985,-4.27312 -3.19794,-4.44777 -45.14442,-19.80531 -20.64144,-7.55729 -57.0299,-20.93871 -80.86323,-29.73647 -23.83334,-8.79776 -44.63804,-16.38653 -46.2327,-16.86393 -2.51913,-0.75417 -4.02578,0.84441 -11.48881,12.18991 -24.48481,37.22247 -44.35647,73.07827 -50.20476,90.58791 -5.30976,15.8973 -5.80085,31.10906 -1.11039,34.3944 3.80676,2.66634 13.27947,2.65166 22.32515,-0.0345 9.66149,-2.86916 18.49869,-11.99113 29.40721,-30.35485 18.96722,-31.92995 42.60264,-44.94656 67.18999,-37.00321 9.20632,2.97425 37.18679,14.85706 36.50279,15.5021 -0.21367,0.20148 -7.58848,-0.44752 -16.38848,-1.44222 -46.30918,-5.23458 -55.3747,-2.11559 -79.25836,27.2688 -13.42854,16.52129 -26.42079,28.91084 -37.90191,36.14366 -6.43745,4.05543 -9.71053,7.0877 -11.01149,10.20135 -1.23212,2.94888 -2.282,14.58005 -3.13932,34.77925 -1.44347,34.00928 -3.59498,50.515 -9.2568,71.01532 -5.74635,20.80639 -7.129,27.70336 -6.25324,31.19266 2.41265,9.61276 83.48845,62.95436 96.39072,63.41766 0.86326,0.031 3.30322,-2.0469 5.42212,-4.6175 z M 240.57303,879.43497 c -1.13803,-4.53427 1.8928,-31.54003 4.82924,-43.03036 3.015,-11.79771 7.69011,-21.87109 14.26328,-30.73292 11.30516,-15.24139 39.65565,-47.83224 43.49892,-50.00501 3.03892,-1.71804 7.12132,-2.33191 15.4814,-2.32791 22.45632,0.0107 68.08883,4.09593 75.8072,6.78657 4.11747,1.43536 4.13762,1.48738 2.10123,5.42531 -1.13085,2.18684 -2.81797,11.28256 -3.74915,20.21271 -1.06233,10.18801 -2.59688,17.97289 -4.11928,20.89733 -3.62318,6.95997 -17.9414,21.36164 -24.0192,24.1592 -6.56834,3.02336 -19.27384,3.25832 -32.88271,0.60811 -13.78893,-2.68528 -20.0766,-5.18192 -33.78396,-13.41458 -14.22108,-8.54118 -17.70892,-9.59528 -22.8564,-6.90761 -10.10541,5.27636 -15.8895,16.17017 -23.2455,43.78084 -4.87698,18.30567 -8.25572,27.78003 -9.90694,27.78003 -0.33386,0 -0.97201,-1.45427 -1.41813,-3.23171 z m 122.8113,-56.93227 c 5.9706,-2.8065 15.28234,-12.12794 15.28234,-15.29825 0,-0.90688 0.71043,-1.88569 1.57872,-2.17512 1.0819,-0.36064 1.761,-6.58489 2.15791,-19.77779 l 0.57919,-19.25153 -5.82458,-0.18304 c -3.20352,-0.10067 -12.57414,-0.63561 -20.82362,-1.18877 -10.70497,-0.7178 -17.95766,-0.48852 -25.33334,0.80088 -5.68385,0.99365 -11.17456,1.63156 -12.20157,1.41758 -1.02702,-0.21396 -4.42356,0.58722 -7.54787,1.7804 -4.54968,1.73754 -6.10237,3.22363 -7.79937,7.46484 -1.16534,2.91247 -2.1188,7.9271 -2.1188,11.1436 0,5.19175 0.29932,5.76991 2.66666,5.15084 1.46667,-0.38354 2.66667,-1.13106 2.66667,-1.66116 0,-1.61754 6.20277,-3.90512 13.05263,-4.81378 10.66413,-1.41466 30.32265,3.35313 31.69843,7.68782 0.41909,1.32043 1.2564,2.40079 1.86069,2.40079 4.04481,0 7.34697,24.17461 3.78825,27.73333 -2.32945,2.32946 -0.49654,1.97242 6.31766,-1.23064 z m 507.71051,145.43007 c 24.09299,-6.88254 47.78216,-14.31439 49.81788,-15.62899 3.58312,-2.31388 -7.83935,-53.98429 -16.98901,-76.85106 -6.22802,-15.56506 -12.80632,-27.12082 -23.31532,-40.95683 -9.57694,-12.60887 -15.62663,-25.23633 -20.0468,-41.84351 -4.40088,-16.53466 -7.987,-24.6301 -15.05496,-33.9857 -5.81916,-7.70259 -19.54939,-20.15448 -25.93019,-23.51596 -7.9333,-4.17936 -12.8528,0.19026 -12.89011,11.44929 -0.0276,8.33056 -1.76797,5.61975 -5.94932,-9.26667 -4.34348,-15.46362 -16.66948,-41.29596 -25.90305,-54.28656 -12.9121,-18.16587 -30.25272,-34.60455 -46.83395,-44.39791 -8.93717,-5.27856 -22.82099,-10.64886 -27.53044,-10.64886 -3.21407,0 -3.40187,0.3191 -2.55025,4.33333 0.50561,2.38333 1.27086,6.43333 1.70056,9 0.77957,4.65667 0.77524,4.66135 -2.02286,2.18381 -1.54225,-1.36557 -5.21912,-6.54793 -8.1708,-11.51636 -11.13697,-18.74629 -44.50984,-41.94592 -62.87856,-43.71092 -10.69361,-1.02752 -11.2698,0.54078 -5.1158,13.92439 9.02742,19.63267 6.05723,18.10165 -9.15402,-4.71856 -11.53642,-17.30715 -25.09848,-32.51057 -32.20655,-36.10435 -2.60588,-1.31749 -9.05639,-3.36953 -14.3345,-4.56006 -9.99437,-2.25435 -31.75048,-2.96651 -32.91793,-1.07752 -0.36952,0.5979 1.45139,5.8479 4.04648,11.66666 2.59508,5.81876 7.06201,15.85959 9.92651,22.31294 2.86448,6.45333 5.19481,13.05333 5.1785,14.66666 -0.0292,2.8901 -0.0684,2.8842 -2.66064,-0.40002 -1.44704,-1.83334 -6.3628,-9.59279 -10.9239,-17.24323 -11.29804,-18.95043 -17.17671,-26.03345 -26.73335,-32.2102 -14.98127,-9.68287 -41.07712,-15.21867 -66.98579,-14.20993 -16.97638,0.66096 -24.10592,2.96492 -25.42384,8.21592 -1.1558,4.60508 4.88038,17.03477 15.27164,31.44744 10.43136,14.46825 15.1384,25.87822 19.29768,46.7781 7.76299,39.00799 15.17984,50.717 43.09863,68.04003 19.40164,12.03831 26.08969,18.72627 34.51525,34.51479 3.71766,6.96644 7.69082,12.84564 8.82927,13.06489 3.12533,0.60188 6.41137,-9.07381 6.41137,-18.87817 0,-11.69445 -4.15156,-26.75773 -12.07244,-43.80288 -3.69985,-7.96182 -7.89713,-19.05118 -9.32728,-24.64302 -2.656,-10.38484 -3.41426,-21.07996 -1.57512,-22.21661 0.56383,-0.34847 4.01383,4.83625 7.66667,11.52163 4.73664,8.66893 10.08325,15.7682 18.64151,24.75228 14.87033,15.61024 25.15409,23.48404 41.91964,32.09591 21.85823,11.22781 27.97976,21.43317 26.17777,43.64165 -1.14073,14.05892 0.15688,17.09693 6.83935,16.01252 6.83641,-1.1094 10.37372,-3.94817 13.83872,-11.10591 2.5986,-5.368 3.05992,-8.34997 2.95,-19.06912 -0.20824,-20.30572 -7.28648,-40.7499 -21.24865,-61.37276 l -5.86754,-8.66667 11.5421,12 c 20.70441,21.52582 49.84514,59.46269 65.05346,84.68989 10.39468,17.24244 12.13402,23.56192 12.1039,43.97678 -0.0311,21.07683 -2.23686,29.0364 -10.63518,38.37735 -8.04257,8.94528 -7.85578,10.18655 1.38931,9.23237 8.64825,-0.89258 16.98461,-5.36472 26.37716,-14.15036 10.05164,-9.40212 14.22663,-20.36305 14.22663,-37.35033 0,-18.662 -5.1861,-37.46667 -18.56998,-67.33428 -4.51157,-10.06812 -8.57058,-20.21121 -9.02001,-22.54021 l -0.81713,-4.23454 2.87545,2.54472 c 1.58151,1.3996 5.66633,7.3996 9.0774,13.33334 9.07895,15.79334 17.26816,27.5741 30.96892,44.55096 20.90423,25.9028 30.27316,42.0767 35.66576,61.57098 3.60016,13.01462 3.29267,37.37635 -0.64793,51.33334 -3.81226,13.50241 -13.23186,33.27944 -24.58543,51.61864 -13.4538,21.73166 -16.71573,29.04803 -12.9508,29.04803 0.73128,0 4.79891,-2.55001 9.03917,-5.66667 4.24028,-3.11667 16.69196,-10.75868 27.67042,-16.98226 16.05918,-9.1038 21.92424,-13.2737 30.00569,-21.33333 11.8031,-11.77124 15.64994,-18.67181 25.28171,-45.35108 3.83885,-10.63333 7.87941,-21.08619 8.97901,-23.22855 1.72616,-3.36312 2.16932,-3.59134 3.24416,-1.67072 0.6847,1.22348 1.9096,14.75144 2.72203,30.06214 1.66205,31.32278 -0.0879,74.82049 -3.57381,88.83713 -2.51586,10.1158 -2.50903,11.33334 0.0635,11.33334 1.15216,0 10.60216,-2.43026 21,-5.40058 z M 497.40747,735.30718 c 7.3634,-2.59796 14.59254,-8.10956 14.59254,-11.12557 0,-2.76011 -5.17786,-7.86329 -12.66667,-12.484 -7.00232,-4.32053 -37.68081,-21.03093 -38.61053,-21.03093 -0.39754,0 -0.7228,4.70464 -0.7228,10.45476 0,17.84048 4.69541,28.30417 14.98698,33.39841 6.70426,3.31855 14.47303,3.59136 22.42048,0.78733 z m -56.00028,-38.01336 c 3.23434,-1.73096 6.59282,-8.12006 6.59282,-12.54201 0,-6.56827 -8.52054,-10.56115 -98.52351,-46.16999 l -55.19018,-21.83549 -5.21894,5.96017 c -6.16451,7.04003 -9.38838,12.69928 -8.81458,15.47333 0.40668,1.96606 7.68511,4.9583 79.74721,32.78494 33.42901,12.90855 74.19344,27.52148 77.08765,27.63381 0.96488,0.0375 2.90867,-0.54969 4.31953,-1.30476 z m 7.30844,-36.11473 c 1.75607,-5.53287 -2.55316,-35.32292 -7.58013,-52.40226 -3.17095,-10.77336 -8.92488,-23.44349 -10.64649,-23.44349 -0.65935,0 -2.20023,2.1 -3.42419,4.66667 -2.68051,5.62106 -4.07013,5.88941 -5.17863,1 -4.67394,-20.61614 -7.86416,-29.3005 -14.67453,-39.94682 -13.10147,-20.48089 -36.57017,-37.6097 -62.48924,-45.60821 -25.61962,-7.90611 -65.80199,-9.51 -85.62744,-3.41785 -0.96006,0.29501 2.27312,7.37246 8.30794,18.1862 11.9762,21.46002 21.41902,44.03413 28.34099,67.75233 l 5.17781,17.7418 22.53915,9.25841 c 52.87472,21.71939 121.2496,49.03414 122.7433,49.03414 0.88888,0 2.01904,-1.26942 2.51146,-2.82092 z M 315.04022,594.63622 c -0.84847,-3.57184 -6.32808,-18.0762 -12.17694,-32.23189 -5.84884,-14.15571 -11.34066,-28.40558 -12.20405,-31.66636 -2.11655,-7.99364 -0.1188,-9.40463 13.31548,-9.40463 15.34659,0 32.84853,5.30827 48.99678,14.86052 13.18112,7.79708 31.44801,27.69484 38.99165,42.47281 0.93587,1.83334 -5.423,-3.62705 -14.13079,-12.1342 -8.70778,-8.50714 -18.61478,-17.07457 -22.01556,-19.03872 C 348.09554,543.03426 326.64376,537.48334 313,536.41437 l -10.33333,-0.8096 0.005,3.86428 c 0.003,2.12536 2.44384,10.76429 5.42354,19.19762 7.52224,21.28995 10.57056,31.93602 10.57056,36.91707 0,6.68925 -1.93232,6.18437 -3.62646,-0.94752 z M 1388.6667,501.53765 c 4.3139,-0.78892 5.2489,-1.47508 4.8917,-3.58983 -0.2429,-1.43796 -6.6561,-15.51448 -14.2514,-31.28115 -15.527,-32.23125 -21.3654,-48.2325 -22.7135,-62.25044 -1.1884,-12.35757 -3.5931,-16.09353 -15.5533,-24.1642 -13.804,-9.31485 -112.4724,-65.58536 -115.0017,-65.58536 -1.7169,0 0.2529,8.96103 6.0081,27.33333 11.9116,38.025 13.7294,69.03465 4.8217,82.25287 -7.0201,10.417 -16.0505,13.43732 -51.9877,17.38768 l -26.4527,2.90779 0.8915,7.13473 c 3.9651,31.73599 19.3074,48.37736 44.5149,48.28434 11.7995,-0.0435 18.2703,-1.68186 34.4238,-8.71559 7.4758,-3.25516 14.2138,-5.91848 14.9733,-5.91848 0.7596,0 2.6286,2.44539 4.1534,5.43419 3.9064,7.65717 8.6385,9.24765 31.1685,10.4759 24.587,1.34038 93.2887,1.54228 100.1134,0.29422 z m -213.427,-75.02256 c -0.9743,-1.57643 -9.9064,-1.52336 -9.9064,0.0589 0,1.43868 4.9395,2.41853 8.3184,1.65012 1.2751,-0.28997 1.9897,-1.05901 1.588,-1.70897 z m 24.0574,-3.78972 c 1.0288,-1.66464 -2.3894,-9.74404 -7.4762,-17.67114 -5.7833,-9.01259 -10.7988,-11.72089 -21.7055,-11.72089 -7.6751,0 -9.3547,0.45146 -12.176,3.27273 -3.9457,3.94565 -4.2808,9.42728 -0.6937,11.34703 1.4184,0.75913 5.2889,1.38024 8.601,1.38024 3.3121,0 9.0523,0.64987 12.7559,1.44415 5.5189,1.18358 7.6045,2.50673 11.5596,7.33333 4.7139,5.75277 7.5469,7.18388 9.1349,4.61455 z m 27.8443,-9.0587 c 4.5751,-8.93924 3.958,-20.07233 -2.568,-46.33333 -4.7605,-19.15655 -10.6558,-36.27038 -15.2596,-44.29807 -3.6067,-6.28919 -4.6939,-7.16819 -11.2089,-9.06215 -10.6699,-3.10181 -12.8799,-7.67321 -5.3649,-11.09726 4.601,-2.09632 4.0907,-3.60999 -2.5238,-7.48632 -8.7147,-5.10715 -11.0188,-4.61675 -12.0018,2.55437 -1.1521,8.40553 -4.9209,15.73212 -16.2409,31.57217 -11.6632,16.32032 -18.1307,28.46694 -18.4264,34.6064 -0.176,3.65362 0.4541,4.76356 3.5684,6.28547 4.7759,2.33391 21.4574,2.54964 24.1532,0.31237 1.6124,-1.33817 2.8309,-1.1309 6.4307,1.09387 6.2596,3.86864 19.1316,17.63469 28.2253,30.18581 4.2507,5.86667 8.923,11.71667 10.3829,13.00001 4.0238,3.53696 8.6315,2.96988 10.8338,-1.33334 z m 147.1253,-49.10591 c 17.3927,-32.61813 26.9027,-86.14458 23.262,-130.92921 -1.6845,-20.72131 -5.328,-41.09344 -9.7045,-54.26104 -7.405,-22.2796 -17.0459,-26.61815 -52.0484,-23.42241 -55.3055,5.04938 -98.6033,22.92912 -137.5653,56.80732 -17.8641,15.5332 -34.8655,36.4641 -59.4938,73.24458 -26.3124,39.29574 -29.3682,44.66667 -25.4127,44.66667 2.1134,0 15.1983,-16.58215 29.4595,-37.33333 7.3077,-10.63334 15.0475,-21.43334 17.1996,-24 l 3.9128,-4.66667 12.3954,6.28052 c 6.8175,3.45429 27.9954,15.08048 47.0621,25.83597 106.8897,60.29647 141.9229,79.46475 143.9809,78.77875 0.7267,-0.24223 3.8552,-5.19273 6.9524,-11.00115 z"
       id="path1909" />
  </g>
</svg>
